<svg fill="#000000" xmlns="http://www.w3.org/2000/svg"  viewBox="0 0 64 64" width="64px" height="64px"><path d="M 19 5 C 16.256253 5 13.762245 6.7039453 11.625 9.4726562 C 9.4877555 12.241367 7.6251348 16.136985 6.0585938 20.912109 C 2.9255115 30.462357 1 43.542289 1 58 A 1.0001 1.0001 0 0 0 2 59 L 10 59 A 1.0001 1.0001 0 0 0 11 58 C 11 44.701403 11.959493 32.74282 13.546875 24.171875 C 14.340566 19.886402 15.299688 16.443268 16.328125 14.15625 C 16.842343 13.012741 17.376712 12.163609 17.857422 11.654297 C 18.338132 11.144985 18.698339 11 19 11 C 19.332855 11 19.701103 11.141765 20.175781 11.599609 C 20.65046 12.057454 21.177499 12.819673 21.6875 13.853516 C 22.707501 15.9212 23.664963 19.052287 24.457031 22.962891 C 26.041167 30.784098 27 41.738923 27 54 A 1.0001 1.0001 0 0 0 28 55 L 36 55 A 1.0001 1.0001 0 0 0 37 54 C 37 41.738923 37.958833 30.784098 39.542969 22.962891 C 40.335037 19.052287 41.292499 15.9212 42.3125 13.853516 C 42.822501 12.819673 43.34954 12.057454 43.824219 11.599609 C 44.298897 11.141765 44.667145 11 45 11 C 45.301661 11 45.661868 11.144985 46.142578 11.654297 C 46.623288 12.163609 47.157657 13.012741 47.671875 14.15625 C 48.700312 16.443268 49.659434 19.886402 50.453125 24.171875 C 52.040507 32.74282 53 44.701403 53 58 A 1.0001 1.0001 0 0 0 54 59 L 62 59 A 1.0001 1.0001 0 0 0 63 58 C 63 43.542289 61.074489 30.462357 57.941406 20.912109 C 56.374865 16.136985 54.512245 12.241367 52.375 9.4726562 C 50.237755 6.7039453 47.743747 5 45 5 C 41.920162 5 39.151055 7.0260371 36.832031 10.296875 C 34.943313 12.960793 33.368163 16.686861 32 20.921875 C 30.631837 16.686861 29.056687 12.960793 27.167969 10.296875 C 24.848945 7.0260371 22.079838 5 19 5 z M 19 7 C 21.195162 7 23.424883 8.4739629 25.537109 11.453125 C 27.649335 14.432287 29.556054 18.840296 31.035156 24.263672 A 1.0001 1.0001 0 0 0 32.964844 24.263672 C 34.443946 18.840296 36.350665 14.432287 38.462891 11.453125 C 40.575117 8.4739629 42.804838 7 45 7 C 46.910753 7 48.868041 8.2041802 50.791016 10.695312 C 52.71399 13.186445 54.521182 16.902405 56.041016 21.535156 C 59.007741 30.578315 60.877327 43.128337 60.966797 57 L 54.962891 57 C 54.91355 44.032397 53.998493 32.331968 52.419922 23.808594 C 51.609113 19.430691 50.639282 15.878138 49.496094 13.335938 C 48.9245 12.064837 48.313196 11.041434 47.595703 10.28125 C 46.87821 9.521066 45.989339 9 45 9 C 44.041855 9 43.159072 9.4622902 42.435547 10.160156 C 41.712022 10.858023 41.09339 11.801499 40.517578 12.96875 C 39.365954 15.303253 38.396417 18.55526 37.583984 22.566406 C 36.005957 30.357454 35.092495 41.066718 35.039062 53 L 28.960938 53 C 28.907506 41.066718 27.994043 30.357454 26.416016 22.566406 C 25.603583 18.55526 24.634046 15.303253 23.482422 12.96875 C 22.90661 11.801499 22.287978 10.858023 21.564453 10.160156 C 20.840928 9.4622902 19.958145 9 19 9 C 18.010661 9 17.12179 9.521066 16.404297 10.28125 C 15.686804 11.041434 15.0755 12.064836 14.503906 13.335938 C 13.360718 15.878137 12.390887 19.430691 11.580078 23.808594 C 10.001507 32.331968 9.0864495 44.032397 9.0371094 57 L 3.0332031 57 C 3.1226732 43.128337 4.9922592 30.578315 7.9589844 21.535156 C 9.4788182 16.902405 11.28601 13.186445 13.208984 10.695312 C 15.131959 8.2041802 17.089247 7 19 7 z M 13.984375 40.986328 A 1.0001 1.0001 0 0 0 13 42 L 13 44 A 1.0001 1.0001 0 1 0 15 44 L 15 42 A 1.0001 1.0001 0 0 0 13.984375 40.986328 z M 18.984375 40.986328 A 1.0001 1.0001 0 0 0 18 42 L 18 44 A 1.0001 1.0001 0 1 0 20 44 L 20 42 A 1.0001 1.0001 0 0 0 18.984375 40.986328 z M 23.984375 40.986328 A 1.0001 1.0001 0 0 0 23 42 L 23 44 A 1.0001 1.0001 0 1 0 25 44 L 25 42 A 1.0001 1.0001 0 0 0 23.984375 40.986328 z M 39.984375 40.986328 A 1.0001 1.0001 0 0 0 39 42 L 39 44 A 1.0001 1.0001 0 1 0 41 44 L 41 42 A 1.0001 1.0001 0 0 0 39.984375 40.986328 z M 44.984375 40.986328 A 1.0001 1.0001 0 0 0 44 42 L 44 44 A 1.0001 1.0001 0 1 0 46 44 L 46 42 A 1.0001 1.0001 0 0 0 44.984375 40.986328 z M 49.984375 40.986328 A 1.0001 1.0001 0 0 0 49 42 L 49 44 A 1.0001 1.0001 0 1 0 51 44 L 51 42 A 1.0001 1.0001 0 0 0 49.984375 40.986328 z"/></svg>