<svg fill="#000000" xmlns="http://www.w3.org/2000/svg"  viewBox="0 0 64 64" width="64px" height="64px"><path d="M 31.03125 2 C 15.714844 1.984375 2.851563 14.011719 2.039063 29.480469 C 1.203125 45.449219 13.511719 59.121094 29.480469 59.960938 C 29.996094 59.988281 30.503906 60 31.015625 60 C 46.316406 60 59.148438 47.972656 59.960938 32.519531 C 60.800781 16.550781 48.488281 2.878906 32.519531 2.039063 C 32.019531 2.011719 31.523438 2 31.03125 2 Z M 31.03125 4 C 31.488281 4 31.949219 4.011719 32.414063 4.039063 C 47.28125 4.816406 58.742188 17.546875 57.964844 32.414063 C 57.183594 47.28125 44.417969 58.746094 29.585938 57.964844 C 14.71875 57.183594 3.257813 44.453125 4.039063 29.585938 C 4.792969 15.183594 16.789063 3.957031 31.03125 4 Z M 30.433594 8.007813 C 28.621094 8.050781 26.816406 8.308594 25.066406 8.773438 C 24.53125 8.917969 24.214844 9.460938 24.355469 9.996094 C 24.472656 10.445313 24.878906 10.738281 25.320313 10.738281 C 25.40625 10.738281 25.492188 10.730469 25.578125 10.707031 C 28.777344 9.855469 32.179688 9.773438 35.421875 10.46875 C 35.964844 10.585938 36.492188 10.238281 36.609375 9.703125 C 36.722656 9.160156 36.378906 8.628906 35.839844 8.515625 C 34.066406 8.132813 32.246094 7.964844 30.433594 8.007813 Z M 39.78125 9.8125 C 39.390625 9.808594 39.015625 10.039063 38.855469 10.421875 C 38.632813 10.925781 38.863281 11.515625 39.371094 11.734375 C 40.066406 12.035156 40.757813 12.382813 41.421875 12.761719 C 41.574219 12.851563 41.746094 12.890625 41.914063 12.890625 C 42.261719 12.890625 42.597656 12.710938 42.78125 12.390625 C 43.058594 11.910156 42.890625 11.300781 42.410156 11.027344 C 41.683594 10.609375 40.929688 10.230469 40.167969 9.898438 C 40.039063 9.84375 39.910156 9.816406 39.78125 9.8125 Z M 27.632813 18.1875 C 23.117188 18.199219 18.839844 18.769531 15.410156 19.8125 C 13.648438 20.355469 12.648438 22.238281 13.183594 24.015625 C 13.730469 25.777344 15.613281 26.773438 17.378906 26.246094 C 24.941406 23.945313 38.003906 24.367188 45.933594 29.066406 C 46.457031 29.378906 47.046875 29.539063 47.640625 29.539063 C 47.925781 29.539063 48.210938 29.503906 48.492188 29.433594 C 49.359375 29.207031 50.085938 28.660156 50.53125 27.894531 C 51.472656 26.292969 50.941406 24.226563 49.351563 23.289063 C 43.347656 19.71875 35.160156 18.171875 27.632813 18.1875 Z M 27.652344 20.167969 C 34.824219 20.148438 42.621094 21.617188 48.332031 25.011719 C 48.976563 25.390625 49.191406 26.230469 48.808594 26.886719 C 48.628906 27.1875 48.339844 27.40625 47.992188 27.496094 C 47.636719 27.589844 47.265625 27.53125 46.953125 27.347656 C 41.742188 24.257813 34.453125 22.90625 27.765625 22.90625 C 23.679688 22.90625 19.820313 23.414063 16.800781 24.332031 C 16.078125 24.550781 15.316406 24.136719 15.09375 23.433594 C 14.875 22.710938 15.28125 21.945313 15.996094 21.722656 C 19.265625 20.730469 23.347656 20.179688 27.652344 20.167969 Z M 28.132813 26.890625 C 24.265625 26.804688 20.40625 27.28125 16.871094 28.355469 C 16.109375 28.582031 15.484375 29.09375 15.109375 29.796875 C 14.734375 30.492188 14.65625 31.296875 14.878906 32.050781 C 15.109375 32.816406 15.617188 33.441406 16.324219 33.816406 C 17.023438 34.195313 17.828125 34.269531 18.582031 34.039063 C 26.367188 31.671875 36.382813 32.835938 42.949219 36.878906 C 43.425781 37.167969 43.957031 37.308594 44.484375 37.308594 C 45.484375 37.308594 46.460938 36.804688 47.027344 35.898438 C 47.445313 35.21875 47.574219 34.417969 47.386719 33.644531 C 47.199219 32.871094 46.726563 32.222656 46.058594 31.824219 C 41.042969 28.734375 34.578125 27.035156 28.132813 26.890625 Z M 28.09375 28.882813 C 34.183594 29.015625 40.285156 30.617188 45.015625 33.53125 C 45.230469 33.660156 45.382813 33.867188 45.441406 34.113281 C 45.503906 34.367188 45.460938 34.625 45.324219 34.84375 C 45.039063 35.308594 44.449219 35.453125 43.988281 35.171875 C 39.398438 32.347656 33.238281 30.832031 27.199219 30.832031 C 24.011719 30.832031 20.859375 31.257813 17.996094 32.125 C 17.753906 32.203125 17.492188 32.175781 17.265625 32.054688 C 17.039063 31.933594 16.871094 31.726563 16.796875 31.484375 C 16.644531 30.964844 16.929688 30.421875 17.441406 30.269531 C 20.789063 29.253906 24.441406 28.804688 28.09375 28.882813 Z M 27.15625 35.28125 C 24.824219 35.3125 22.40625 35.578125 19.921875 36.089844 C 19.125 36.25 18.414063 36.695313 17.96875 37.375 C 17.539063 38.039063 17.394531 38.828125 17.578125 39.644531 C 17.921875 41.1875 19.425781 42.238281 20.984375 41.875 C 27.246094 40.421875 33.652344 41.578125 38.484375 43.730469 L 38.484375 43.734375 C 38.890625 43.910156 39.3125 43.996094 39.722656 43.996094 C 40.808594 43.988281 41.828125 43.386719 42.324219 42.355469 C 43.003906 40.929688 42.417969 39.28125 41.03125 38.523438 C 36.976563 36.316406 32.277344 35.222656 27.15625 35.28125 Z M 27.304688 37.285156 C 32.269531 37.238281 36.703125 38.304688 40.160156 40.3125 C 40.585938 40.558594 40.78125 41.046875 40.578125 41.472656 C 40.355469 41.933594 39.761719 42.121094 39.253906 41.894531 C 34.25 39.417969 27 38.5 20.640625 39.90625 C 20.101563 40.027344 19.582031 39.699219 19.460938 39.15625 C 19.410156 38.925781 19.453125 38.6875 19.582031 38.484375 C 19.730469 38.257813 19.964844 38.117188 20.242188 38.0625 C 22.679688 37.558594 25.046875 37.308594 27.304688 37.285156 Z M 26.066406 43.847656 C 25.515625 43.882813 25.09375 44.355469 25.128906 44.90625 L 25.246094 46.90625 C 25.273438 47.40625 25.671875 47.800781 26.160156 47.84375 C 26.207031 47.847656 26.257813 47.847656 26.304688 47.84375 C 26.855469 47.808594 27.277344 47.335938 27.242188 46.785156 L 27.121094 44.789063 C 27.089844 44.238281 26.613281 43.804688 26.066406 43.847656 Z M 31.527344 44.265625 C 31.144531 44.339844 30.828125 44.640625 30.746094 45.046875 L 30.34375 47.003906 C 30.230469 47.546875 30.578125 48.074219 31.121094 48.1875 C 31.160156 48.195313 31.199219 48.199219 31.238281 48.203125 C 31.734375 48.246094 32.199219 47.90625 32.300781 47.40625 L 32.703125 45.449219 C 32.816406 44.90625 32.464844 44.375 31.925781 44.265625 C 31.789063 44.238281 31.65625 44.238281 31.527344 44.265625 Z M 20.757813 44.515625 C 20.628906 44.503906 20.492188 44.519531 20.363281 44.5625 C 19.839844 44.738281 19.554688 45.304688 19.730469 45.828125 L 20.363281 47.722656 C 20.492188 48.117188 20.84375 48.371094 21.230469 48.40625 C 21.359375 48.414063 21.496094 48.402344 21.628906 48.359375 C 22.152344 48.183594 22.433594 47.617188 22.261719 47.09375 L 21.628906 45.195313 C 21.5 44.800781 21.144531 44.542969 20.757813 44.515625 Z M 37.09375 46.082031 C 36.703125 46.058594 36.316406 46.261719 36.132813 46.632813 L 35.238281 48.421875 C 34.992188 48.917969 35.191406 49.515625 35.6875 49.765625 C 35.804688 49.824219 35.925781 49.855469 36.050781 49.863281 C 36.445313 49.898438 36.839844 49.691406 37.027344 49.316406 L 37.921875 47.527344 C 38.167969 47.03125 37.96875 46.433594 37.472656 46.1875 C 37.351563 46.125 37.222656 46.089844 37.09375 46.082031 Z"/></svg>