<svg fill="#000000" xmlns="http://www.w3.org/2000/svg"  viewBox="0 0 64 64" width="64px" height="64px"><path d="M 31.673828 6.0214844 C 31.096828 5.9904844 30.662391 6.4450469 30.650391 6.9980469 L 30.603516 8.9980469 C 30.590516 9.5500469 31.028078 10.008484 31.580078 10.021484 L 31.603516 10.021484 C 32.145516 10.021484 32.591516 9.5899219 32.603516 9.0449219 L 32.648438 7.0449219 C 32.661437 6.4929219 32.225828 6.0344844 31.673828 6.0214844 z M 26.257812 6.4628906 C 25.714813 6.5658906 25.359891 7.0898125 25.462891 7.6328125 L 25.835938 9.5976562 C 25.925937 10.076656 26.345406 10.410156 26.816406 10.410156 C 26.878406 10.410156 26.940906 10.403578 27.003906 10.392578 C 27.546906 10.289578 27.903781 9.7676094 27.800781 9.2246094 L 27.427734 7.2597656 C 27.324734 6.7177656 26.804813 6.3618906 26.257812 6.4628906 z M 36.761719 6.8613281 C 36.374437 6.9012656 36.02775 7.1665 35.90625 7.5625 L 35.320312 9.4746094 C 35.158312 10.001609 35.456375 10.562609 35.984375 10.724609 C 36.082375 10.754609 36.180344 10.767578 36.277344 10.767578 C 36.705344 10.767578 37.101422 10.490547 37.232422 10.060547 L 37.818359 8.1484375 C 37.980359 7.6214375 37.68425 7.0623906 37.15625 6.9003906 C 37.02475 6.8598906 36.890813 6.8480156 36.761719 6.8613281 z M 21.453125 7.9511719 C 21.323125 7.9502344 21.19025 7.9748437 21.0625 8.0273438 C 20.5515 8.2393437 20.311438 8.8259375 20.523438 9.3359375 L 21.291016 11.181641 C 21.451016 11.566641 21.822844 11.798828 22.214844 11.798828 C 22.342844 11.798828 22.472656 11.773656 22.597656 11.722656 C 23.108656 11.510656 23.350672 10.924062 23.138672 10.414062 L 22.369141 8.5664062 C 22.210891 8.1839063 21.843125 7.9539844 21.453125 7.9511719 z M 41.816406 9.0996094 C 41.432172 9.0332813 41.028188 9.197375 40.804688 9.546875 L 39.724609 11.230469 C 39.426609 11.695469 39.560391 12.315281 40.025391 12.613281 C 40.192391 12.720281 40.379453 12.771484 40.564453 12.771484 C 40.894453 12.771484 41.217203 12.608547 41.408203 12.310547 L 42.488281 10.626953 C 42.786281 10.161953 42.650547 9.5421406 42.185547 9.2441406 C 42.069297 9.1693906 41.944484 9.1217187 41.816406 9.0996094 z M 16.660156 10.447266 C 16.532688 10.472625 16.407469 10.523813 16.292969 10.601562 C 15.836969 10.913562 15.718297 11.536188 16.029297 11.992188 L 17.154297 13.644531 C 17.348297 13.929531 17.662422 14.082031 17.982422 14.082031 C 18.176422 14.082031 18.371969 14.027156 18.542969 13.910156 C 18.998969 13.598156 19.117641 12.975531 18.806641 12.519531 L 17.681641 10.867188 C 17.449141 10.525187 17.042562 10.371187 16.660156 10.447266 z M 45.714844 12.501953 C 45.459344 12.488828 45.197688 12.572813 44.992188 12.757812 L 43.507812 14.097656 C 43.097812 14.467656 43.065547 15.099766 43.435547 15.509766 C 43.633547 15.728766 43.904734 15.839844 44.177734 15.839844 C 44.416734 15.839844 44.655656 15.755031 44.847656 15.582031 L 46.332031 14.242188 C 46.742031 13.872188 46.77625 13.240078 46.40625 12.830078 C 46.22075 12.625578 45.970344 12.515078 45.714844 12.501953 z M 30 13 C 22.413584 13 15.863682 17.454834 12.826172 23.902344 C 9.9164564 25.884097 8 29.223371 8 33 C 8 35.36797 9.1904817 37.464532 11 38.732422 L 11 56 A 1.0001 1.0001 0 0 0 12 57 L 44 57 L 53 57 A 1.0001 1.0001 0 0 0 54 56 L 54 37 C 54 33.145666 50.854334 30 47 30 L 45 30 L 45 26 C 45 18.83003 39.16997 13 32 13 L 30 13 z M 12.849609 13.779297 C 12.593609 13.782172 12.339484 13.883078 12.146484 14.080078 C 11.761484 14.475078 11.767109 15.108141 12.162109 15.494141 L 13.59375 16.890625 C 13.78875 17.080625 14.040969 17.175781 14.292969 17.175781 C 14.551969 17.175781 14.811813 17.075 15.007812 16.875 C 15.392812 16.48 15.385234 15.846937 14.990234 15.460938 L 13.560547 14.064453 C 13.363547 13.871953 13.105609 13.776422 12.849609 13.779297 z M 30 15 L 32 15 C 38.09003 15 43 19.90997 43 26 L 43 31 L 43 55 L 13 55 L 13 39.703125 C 13.634355 39.893215 14.30534 40 15 40 L 26 40 C 30.958516 40 35 35.958516 35 31 C 35 26.041484 30.958516 22 26 22 L 19 22 C 17.9452 22 16.92748 22.158768 15.960938 22.4375 C 19.015538 17.950246 24.15159 15 30 15 z M 48.582031 16.837891 C 48.452359 16.84725 48.322469 16.882313 48.199219 16.945312 L 46.417969 17.853516 C 45.925969 18.103516 45.730469 18.705266 45.980469 19.197266 C 46.157469 19.544266 46.507094 19.744141 46.871094 19.744141 C 47.023094 19.744141 47.179219 19.708766 47.324219 19.634766 L 49.107422 18.726562 C 49.599422 18.476562 49.794922 17.875813 49.544922 17.382812 C 49.357422 17.013063 48.971047 16.809812 48.582031 16.837891 z M 50.603516 21.822266 C 50.476062 21.797469 50.341781 21.797422 50.207031 21.826172 L 48.25 22.238281 C 47.71 22.353281 47.364516 22.883828 47.478516 23.423828 C 47.578516 23.894828 47.992078 24.216797 48.455078 24.216797 C 48.523078 24.216797 48.593109 24.210313 48.662109 24.195312 L 50.619141 23.783203 C 51.159141 23.668203 51.506578 23.137656 51.392578 22.597656 C 51.307078 22.192656 50.985875 21.896656 50.603516 21.822266 z M 19 24 L 26 24 C 29.877484 24 33 27.122516 33 31 C 33 34.877484 29.877484 38 26 38 L 15 38 C 14.090597 38 13.252081 37.741746 12.519531 37.322266 A 1.0001 1.0001 0 0 0 12.431641 37.275391 C 10.977533 36.403665 10 34.828535 10 33 C 10 29.901486 11.554538 27.176571 13.927734 25.558594 A 1.0001 1.0001 0 0 0 14.287109 25.335938 C 15.657779 24.493051 17.267757 24 19 24 z M 45 32 L 47 32 C 49.773666 32 52 34.226334 52 37 L 52 55 L 45 55 L 45 32 z M 18 47 C 17.448 47 17 47.448 17 48 L 17 50 C 17 50.552 17.448 51 18 51 C 18.552 51 19 50.552 19 50 L 19 48 C 19 47.448 18.552 47 18 47 z M 23 47 C 22.448 47 22 47.448 22 48 L 22 50 C 22 50.552 22.448 51 23 51 C 23.552 51 24 50.552 24 50 L 24 48 C 24 47.448 23.552 47 23 47 z M 28 47 C 27.448 47 27 47.448 27 48 L 27 50 C 27 50.552 27.448 51 28 51 C 28.552 51 29 50.552 29 50 L 29 48 C 29 47.448 28.552 47 28 47 z M 33 47 C 32.448 47 32 47.448 32 48 L 32 50 C 32 50.552 32.448 51 33 51 C 33.552 51 34 50.552 34 50 L 34 48 C 34 47.448 33.552 47 33 47 z M 38 47 C 37.448 47 37 47.448 37 48 L 37 50 C 37 50.552 37.448 51 38 51 C 38.552 51 39 50.552 39 50 L 39 48 C 39 47.448 38.552 47 38 47 z"/></svg>