<svg fill="#000000" xmlns="http://www.w3.org/2000/svg"  viewBox="0 0 64 64" width="64px" height="64px"><path d="M 15 4 C 11.454892 4 8.3105155 5.6849395 6.2988281 8.2890625 C 6.287516 8.3002097 6.2803045 8.3144993 6.2695312 8.3261719 C 4.8513431 10.178356 4 12.487097 4 15 L 4 49 C 4 55.075 8.925 60 15 60 L 49 60 C 55.075 60 60 55.075 60 49 L 60 15 C 60 8.925 55.075 4 49 4 L 15 4 z M 15 6 L 49 6 C 51.826 6 54.349 7.3114688 56 9.3554688 L 56 11 C 56 11.553 56.448 12 57 12 C 57.158 12 57.302547 11.955625 57.435547 11.890625 C 57.794547 12.861625 58 13.906 58 15 L 58 49 C 58 53.971 53.971 58 49 58 L 15 58 C 10.029 58 6 53.971 6 49 L 6 15 C 6 13.904657 6.2042887 12.859516 6.5625 11.888672 C 6.696157 11.954865 6.8407838 12 7 12 C 7.552 12 8 11.553 8 11 L 8 9.3496094 C 9.6498186 7.3084476 12.170709 6 15 6 z M 12 8 C 11.448 8 11 8.447 11 9 L 11 11 C 11 11.553 11.448 12 12 12 C 12.552 12 13 11.553 13 11 L 13 9 C 13 8.447 12.552 8 12 8 z M 17 8 C 16.448 8 16 8.447 16 9 L 16 11 C 16 11.553 16.448 12 17 12 C 17.552 12 18 11.553 18 11 L 18 9 C 18 8.447 17.552 8 17 8 z M 22 8 C 21.448 8 21 8.447 21 9 L 21 11 C 21 11.553 21.448 12 22 12 C 22.552 12 23 11.553 23 11 L 23 9 C 23 8.447 22.552 8 22 8 z M 27 8 C 26.448 8 26 8.447 26 9 L 26 11 C 26 11.553 26.448 12 27 12 C 27.552 12 28 11.553 28 11 L 28 9 C 28 8.447 27.552 8 27 8 z M 32 8 C 31.448 8 31 8.447 31 9 L 31 11 C 31 11.553 31.448 12 32 12 C 32.552 12 33 11.553 33 11 L 33 9 C 33 8.447 32.552 8 32 8 z M 37 8 C 36.448 8 36 8.447 36 9 L 36 11 C 36 11.553 36.448 12 37 12 C 37.552 12 38 11.553 38 11 L 38 9 C 38 8.447 37.552 8 37 8 z M 42 8 C 41.448 8 41 8.447 41 9 L 41 11 C 41 11.553 41.448 12 42 12 C 42.552 12 43 11.553 43 11 L 43 9 C 43 8.447 42.552 8 42 8 z M 47 8 C 46.448 8 46 8.447 46 9 L 46 11 C 46 11.553 46.448 12 47 12 C 47.552 12 48 11.553 48 11 L 48 9 C 48 8.447 47.552 8 47 8 z M 52 8 C 51.448 8 51 8.447 51 9 L 51 11 C 51 11.553 51.448 12 52 12 C 52.552 12 53 11.553 53 11 L 53 9 C 53 8.447 52.552 8 52 8 z M 14.035156 21 C 13.462156 21 13 21.448 13 22 L 13 37.714844 C 13 40.629844 15.478438 43 18.523438 43 L 40.964844 43 C 41.537844 43 42 42.552 42 42 L 42 38.105469 L 49.464844 42.84375 C 49.627844 42.94775 49.813 43 50 43 C 50.166 43 50.330469 42.959953 50.480469 42.876953 C 50.801469 42.701953 51 42.365 51 42 L 51 22 C 51 21.635 50.802422 21.299 50.482422 21.125 C 50.162422 20.949 49.772844 20.96125 49.464844 21.15625 L 41.980469 25.910156 C 41.777838 23.170425 39.389187 21 36.476562 21 L 14.035156 21 z M 15.070312 23 L 36.476562 23 C 38.379562 23 39.927734 24.473156 39.927734 26.285156 L 39.927734 41 L 18.523438 41 C 16.620438 41 15.070312 39.526844 15.070312 37.714844 L 15.070312 23 z M 49 23.818359 L 49 40.181641 L 42 35.736328 L 42 28.263672 L 49 23.818359 z"/></svg>